<svg width="337" height="298" fill="none" xmlns="http://www.w3.org/2000/svg"><path d="M30.458 30.228c41.704-40.63 174.213-45.197 244.837 26.39 70.624 71.596 99.708 219.146-34.392 238.795C96.396 316.594-68.751 126.874 30.458 30.228z" fill="#F2EFE9"/><path d="M229.665 35.924h-71.161L51.341 272.497c-.575 1.264.355 2.7 1.744 2.7h281.999c1.389 0 2.319-1.436 1.744-2.7L229.665 35.924z" fill="#fff"/><path d="M72.02 125.448l3.823-35.295a61.458 61.458 0 0113.56-32.327l7.982-9.739c.278-.335.795.029.575.402l-6.114 10.112a79.942 79.942 0 00-11.135 33.294l-3.421 33.543h-5.27v.01z" fill="#59A800"/><path d="M75.42 120.794s-.163-22.58-15.457-52.646a15.673 15.673 0 00-6.487-6.646L34.579 51.19a18.535 18.535 0 01-4.39-3.322l-3.506-3.591c-.307-.316-.815.038-.633.44l1.179 2.51a18.577 18.577 0 006.43 7.487l15.725 10.553a15.772 15.772 0 015.462 6.32c3.067 6.444 8.768 21.133 13.866 49.218h6.708v-.01z" fill="#97CF00"/><path d="M73.436 119.528s-6.698-18.816-21.551-35.468l-5.951 1.217a.667.667 0 00-.383 1.082c2.721 3.284 12.515 15.78 19.012 33.16h8.873v.009z" fill="#59A800"/><path d="M44.508 86.368l-7.043 19.237a16.696 16.696 0 00-1.026 5.765v9.891c0 2.088.297 4.166.873 6.177l4.043 13.951c.182.623 1.102.498 1.102-.153-.019-3.667-.2-9.604-1.006-16.106a21.597 21.597 0 01-.105-4.165l.747-10.581a16.905 16.905 0 011.188-5.133l8.596-21.19-6.171 1.263a1.632 1.632 0 00-1.198 1.044z" fill="#97CF00"/><path d="M93.214 95.504s-11.614 5.295-22.337 23.958h8.078s7.877-12.42 22.951-23l-8.692-.958z" fill="#59A800"/><path d="M93.215 95.504h8.72c1.083 0 2.089.565 2.645 1.484l8.615 14.086a22.723 22.723 0 012.97 7.698c.92 4.894 2.166 13.569 2.166 24.638 0 0-3.919-14.047-7.762-24.188a22.715 22.715 0 00-3.402-5.984L93.215 95.504z" fill="#97CF00"/><path d="M96.224 210.296c-3.517-4.271-4.264-10.217-1.974-15.254 2.108-4.625 3.306-9.92 3.306-15.551 0-8.733-2.885-16.661-7.57-22.512-3.038-3.792-3.996-8.761-2.703-13.444.585-2.116.901-4.366.901-6.712 0-7.613-3.325-14.297-8.337-18.117a65.583 65.583 0 00-19.453 0c-5.011 3.82-8.337 10.504-8.337 18.117 0 2.346.317 4.596.901 6.712 1.294 4.683.336 9.652-2.702 13.444-4.686 5.86-7.57 13.789-7.57 22.512 0 5.631 1.197 10.926 3.306 15.551 2.3 5.037 1.542 10.983-1.974 15.254-6.46 7.842-10.436 18.576-10.436 30.421 0 13.167 4.925 24.964 12.697 32.94a5.068 5.068 0 003.641 1.532h40.391c1.37 0 2.693-.546 3.642-1.532 7.771-7.976 12.697-19.773 12.697-32.94.009-11.835-3.967-22.579-10.426-30.421z" fill="#CFC4AE"/><path d="M225.15 273.715l-41.359-99.154h12.908l32.84 97.335c.546 1.608-.594 3.303-2.233 3.303-.93 0-1.782-.584-2.156-1.484z" fill="#000"/><path d="M142.92 174.56l-36.375 99.098c-.336.928-1.189 1.532-2.137 1.532-1.534 0-2.636-1.561-2.185-3.103l28.479-97.536h12.218v.009z" fill="#683D34"/><path d="M110.146 244.931l4.389 6.933 28.384-77.303h-12.227l-20.546 70.37z" fill="#000"/><path d="M204.593 170.289h-80.638a2.139 2.139 0 00-2.137 2.135c0 1.178.959 2.136 2.137 2.136h80.638a2.138 2.138 0 002.137-2.136 2.138 2.138 0 00-2.137-2.135z" fill="#683D34"/><path d="M194.081 24.578a.96.96 0 01-.958-.958V2.547a.96.96 0 01.958-.957.96.96 0 01.957.957V23.62a.954.954 0 01-.957.958z" fill="#000"/><path d="M194.083 21.266c-28.144 0-35.446 14.162-35.446 14.162h70.892s-7.311-14.162-35.446-14.162z" fill="#000"/><path d="M194.082 41.621c19.651 0 35.581-2.55 35.581-5.697 0-3.147-15.93-5.697-35.581-5.697-19.65 0-35.58 2.55-35.58 5.697 0 3.147 15.93 5.697 35.58 5.697z" fill="#F2EFE9"/><path d="M188.591 30.294a8.647 8.647 0 00-3.2 6.731c0 4.798 3.89 8.685 8.691 8.685s8.692-3.887 8.692-8.685a8.648 8.648 0 00-3.201-6.731 205.58 205.58 0 00-5.481-.067c-1.879 0-3.709.028-5.501.067z" fill="#fff"/><path d="M242.514 276.155H31.407a.96.96 0 01-.958-.957.96.96 0 01.958-.958h211.116c.527 0 .959.431.959.958a.963.963 0 01-.968.957zM270.764 276.155h-18.476a.96.96 0 01-.958-.957.96.96 0 01.958-.958h18.476a.96.96 0 01.958.958.955.955 0 01-.958.957z" fill="#000"/><path d="M232.087 84.06c-12.371 0-15.294 19.362-15.064 33.055 0 0-8.557 13.272-8.921 32.088-11.049 17.188-20.919 42.372-20.919 42.372l-3.182-3.744c-14.518-2.864-37.851-3.084-55.436-.613 0 0-18.159-2.634-31.785-.508-11.116 1.733-18.476 6.588-14.959 20.042 3.93 15.072 14.336 26.907 18.897 31.542 1.323 1.34 3.191 2.116 5.156 2.116h82.056c1.907 0 3.699-.814 4.859-2.203 2.395-2.891 6.88-8.608 12.332-17.063l54.507.996 38.302-98.255 3.804-39.805h-69.647v-.02z" fill="#45C1FF"/><path d="M260.969 240.41h-75.752a6.399 6.399 0 01-4.762-2.116c-4.207-4.635-13.818-16.47-17.441-31.542-4.705-19.544 8.519-23.527 33.597-15.924 25.078 7.603 51.517 18.097 51.517 18.097l31.153-60.536c2.166-17.456 7.752-32.911 7.752-32.911 1.735-18.931 5.041-31.417 14.69-31.417 14.94 0 14.039 31.426 5.434 63.591-13.818 51.631-35.437 82.378-41.704 90.555a5.642 5.642 0 01-4.484 2.203zM242.513 119.088a.98.98 0 01-.68-.277l-6.66-6.655a.955.955 0 011.351-1.351l6.66 6.655a.954.954 0 01-.671 1.628z" fill="#008AED"/><path d="M235.865 119.088a.952.952 0 01-.68-1.627l6.659-6.656a.957.957 0 011.352 1.351l-6.66 6.655a.96.96 0 01-.671.277zM270.246 119.088a.982.982 0 01-.681-.277l-6.66-6.655a.955.955 0 011.351-1.351l6.66 6.656a.952.952 0 01-.67 1.627z" fill="#008AED"/><path d="M263.586 119.088a.983.983 0 01-.681-.277.954.954 0 010-1.35l6.66-6.656a.955.955 0 011.351 1.351l-6.66 6.655a.94.94 0 01-.67.277zM231.722 152.67a.98.98 0 01-.68-.277l-6.66-6.655a.952.952 0 010-1.35.954.954 0 011.351 0l6.66 6.655a.952.952 0 010 1.35.921.921 0 01-.671.277z" fill="#008AED"/><path d="M225.062 152.67a.981.981 0 01-.68-.277.952.952 0 010-1.35l6.66-6.655a.954.954 0 011.351 0 .952.952 0 010 1.35l-6.66 6.655a.907.907 0 01-.671.277zM261.115 152.67a.98.98 0 01-.68-.277l-6.651-6.655a.952.952 0 010-1.35.954.954 0 011.351 0l6.651 6.654a.955.955 0 010 1.351.923.923 0 01-.671.277z" fill="#008AED"/><path d="M254.453 152.67a.983.983 0 01-.681-.277.954.954 0 010-1.35l6.651-6.655a.954.954 0 011.351 0 .952.952 0 010 1.35l-6.65 6.655a.908.908 0 01-.671.277z" fill="#008AED"/><path d="M228.425 202.463c-.125 0-.25-.028-.374-.076-.393-.163-39.806-16.575-69.57-16.575-30.559 0-39.28 5.764-39.366 5.821a.962.962 0 01-1.332-.239.955.955 0 01.249-1.331c.365-.249 9.296-6.167 40.449-6.167 30.156 0 69.915 16.557 70.308 16.729a.95.95 0 01.508 1.254.935.935 0 01-.872.584z" fill="#fff"/><path d="M307.187 273.715l-41.359-99.154h12.908l32.84 97.335c.546 1.608-.594 3.303-2.233 3.303-.929 0-1.782-.584-2.156-1.484z" fill="#000"/><path d="M224.956 174.56l-36.376 99.098c-.336.928-1.188 1.532-2.137 1.532-1.533 0-2.635-1.561-2.185-3.103l28.48-97.536h12.218v.009z" fill="#683D34"/><path d="M211.514 178.745l8.547 9.164 4.897-13.348h-12.227l-1.217 4.184z" fill="#000"/><path d="M286.64 170.289h-80.638a2.138 2.138 0 00-2.137 2.135c0 1.178.958 2.136 2.137 2.136h80.638a2.138 2.138 0 002.137-2.136 2.138 2.138 0 00-2.137-2.135z" fill="#683D34"/><path d="M263.163 86.456h-18.926a2.395 2.395 0 01-2.395-2.394 2.395 2.395 0 012.395-2.394h18.926a2.395 2.395 0 012.396 2.394 2.396 2.396 0 01-2.396 2.394z" fill="#2CB9FF"/><path d="M250.38 81.668h-6.143a2.395 2.395 0 00-2.395 2.394 2.395 2.395 0 002.395 2.394h8.309l-2.166-4.788z" fill="#45C1FF"/><path d="M241.842 84.06a2.395 2.395 0 002.395 2.394h18.926a2.396 2.396 0 002.396-2.393h-23.717z" fill="#008AED"/><path d="M44.027 213.168a2.821 2.821 0 01-1.715-.575 2.87 2.87 0 01-.584-4.021c1.858-2.481 2.29-4.367 2.3-4.386.344-1.532 1.868-2.528 3.401-2.202a2.856 2.856 0 012.233 3.351c-.058.306-.68 3.131-3.325 6.674a2.874 2.874 0 01-2.31 1.159z" fill="#9C8C6B"/><path d="M47.42 201.994c-.048-.01-.096-.01-.144-.019a14.448 14.448 0 01-3.258 8.321 40.921 40.921 0 00-1.735 2.288l.02.019a2.887 2.887 0 001.715.575c.872 0 1.744-.402 2.31-1.149 2.644-3.543 3.267-6.368 3.324-6.674a2.862 2.862 0 00-2.233-3.361z" fill="#B3A182"/></svg>